<svg width="62" height="59" viewBox="0 0 62 59" fill="none" xmlns="http://www.w3.org/2000/svg">
<g filter="url(#filter0_i)">
<path fill-rule="evenodd" clip-rule="evenodd" d="M48.3516 28.7103C48.365 28.7146 48.3767 28.7183 48.3866 28.7216C54.7958 30.8538 61.9977 34.8743 62 38.992V40.4899C62 44.9814 54.9534 46.6119 47.0303 47.0474C44.7809 41.2496 36.9223 37.4561 31.8934 35.5701C35.0502 31.8122 38.0685 25.9883 38.0685 19.606C38.0685 13.6284 35.6711 9.18892 32.1871 6.33735C33.8467 2.1724 37.5456 0 41.839 0C47.6703 0 52.4699 3.98037 52.4699 11.5743C52.4699 16.5083 50.3949 21.5299 47.3861 24.6442H47.4004C46.2864 28.0569 47.9728 28.5905 48.3516 28.7103ZM27.3582 33.511C26.1308 37.2665 28.0936 39.2638 28.4064 39.3656C35.2239 41.635 42.8843 45.9088 42.8843 50.2914V51.8864C42.8843 57.6819 31.8546 59 21.5054 59C11.1682 59 0 57.6819 0 51.8864V50.2914C0 46.0389 7.62217 41.7273 14.1173 39.3656C14.5877 39.1904 16.8299 36.8571 15.5763 33.5488C12.3598 30.2358 9.85008 24.8805 9.85008 19.6057C9.85008 11.5314 15.2348 7.29783 21.4433 7.29783C27.6471 7.29783 33.2801 11.5314 33.2801 19.6057C33.2801 24.8616 30.5412 30.1956 27.3414 33.511H27.3582Z" fill="#C66F34"/>
</g>
<defs>
<filter id="filter0_i" x="0" y="0" width="62" height="62.3453" filterUnits="userSpaceOnUse" color-interpolation-filters="sRGB">
<feFlood flood-opacity="0" result="BackgroundImageFix"/>
<feBlend mode="normal" in="SourceGraphic" in2="BackgroundImageFix" result="shape"/>
<feColorMatrix in="SourceAlpha" type="matrix" values="0 0 0 0 0 0 0 0 0 0 0 0 0 0 0 0 0 0 127 0" result="hardAlpha"/>
<feOffset dy="3.34533"/>
<feGaussianBlur stdDeviation="1.67266"/>
<feComposite in2="hardAlpha" operator="arithmetic" k2="-1" k3="1"/>
<feColorMatrix type="matrix" values="0 0 0 0 0 0 0 0 0 0 0 0 0 0 0 0 0 0 0.25 0"/>
<feBlend mode="normal" in2="shape" result="effect1_innerShadow"/>
</filter>
</defs>
</svg>
