<svg  viewBox="0 0 62 62" fill="none" xmlns="http://www.w3.org/2000/svg">
<path d="M60.9267 37.7942L56.9408 34.759C55.7825 33.877 55.2124 32.4533 55.2124 30.9975C55.2124 29.5424 55.7833 28.1175 56.9411 27.2361L60.9321 24.1982C62.0198 23.3612 62.3169 21.8757 61.6245 20.6384L55.5387 10.385C54.8887 9.22771 53.4642 8.6335 52.0184 9.15275L47.2987 10.9978C45.9336 11.5315 44.3898 11.3097 43.115 10.5864C41.8036 9.84227 40.8331 8.60304 40.6133 7.11134L39.916 2.37671C39.7435 1.023 38.5338 0 37.104 0H24.9008C23.4709 0 22.2639 1.023 22.0941 2.356L21.3943 7.11271C21.1744 8.60698 20.2416 9.83103 18.9288 10.5779C17.6599 11.2998 16.0869 11.5386 14.7273 11.007L9.97845 9.15021C8.68107 8.66196 7.12914 9.20954 6.48449 10.3617L0.390933 20.628C-0.327953 21.8112 -0.030873 23.3482 1.08072 24.2059L5.06871 27.2426C6.22597 28.1239 6.795 29.5456 6.795 31.0001C6.795 32.4563 6.22517 33.8794 5.06647 34.7614L1.07537 37.7994C-0.0123443 38.639 -0.306813 40.1244 0.385586 41.3592L6.47131 51.6125C7.1213 52.7672 8.53259 53.3665 9.99163 52.8447L14.711 50.9998C16.0764 50.466 17.6192 50.6863 18.8941 51.41C20.2042 52.1535 21.1742 53.393 21.3938 54.8833L22.0914 59.6182C22.2638 60.977 23.4709 62 24.9034 62H37.1066C38.5365 62 39.7463 60.977 39.916 59.644L40.616 54.8878C40.8358 53.3945 41.766 52.1714 43.0778 51.4249C44.3485 50.7018 45.9244 50.4619 47.286 50.9943L52.0316 52.8498C52.3659 52.9763 52.7134 53.041 53.0716 53.041C54.1008 53.041 55.0479 52.4933 55.5254 51.6408L61.6376 41.3333C62.3169 40.1243 62.0197 38.639 60.9267 37.7942ZM31.0024 41.3333C25.1502 41.3333 20.3909 36.6988 20.3909 31C20.3909 25.3012 25.1502 20.6667 31.0024 20.6667C36.8545 20.6667 41.6138 25.3012 41.6138 31C41.6138 36.6988 36.8545 41.3333 31.0024 41.3333Z" fill="url(#paint0_linear)"/>
<defs>
<linearGradient id="paint0_linear" x1="31" y1="0" x2="31" y2="62" gradientUnits="userSpaceOnUse">
<stop stop-color="#FCD86F"/>
<stop offset="1" stop-color="#EDA439"/>
</linearGradient>
</defs>
</svg>